<?xml version="1.0" encoding="UTF-8"?><svg xmlns="http://www.w3.org/2000/svg" width="1800" height="1000" viewBox="0 0 1800 1000"><defs><filter id="paperNoise"><feTurbulence type="fractalNoise" baseFrequency="0.018" numOctaves="5" seed="9"/><feColorMatrix type="matrix" values="0.36 0 0 0 0.64 0 0.29 0 0 0.52 0 0 0.2 0 0.34 0 0 0 .16 0"/></filter><filter id="softShadow" x="-20%" y="-20%" width="140%" height="150%"><feDropShadow dx="0" dy="3" stdDeviation="2" flood-color="#4d2d11" flood-opacity=".35"/></filter><radialGradient id="vignette" cx="51%" cy="47%" r="70%"><stop offset="0" stop-color="#fff0b0" stop-opacity=".18"/><stop offset="1" stop-color="#5e3519" stop-opacity=".25"/></radialGradient></defs><rect width="1800" height="1000" fill="#dec991"/><rect width="1800" height="1000" filter="url(#paperNoise)" opacity=".75"/><rect width="1800" height="1000" fill="url(#vignette)"/><line x1="-669" y1="98" x2="-669" y2="910" stroke="#5d3d23" stroke-opacity=".07"/><line x1="110" y1="1242.1818181818182" x2="1668" y2="1242.1818181818182" stroke="#5d3d23" stroke-opacity=".07"/><line x1="-279.5" y1="98" x2="-279.5" y2="910" stroke="#5d3d23" stroke-opacity=".07"/><line x1="110" y1="1057.6363636363637" x2="1668" y2="1057.6363636363637" stroke="#5d3d23" stroke-opacity=".07"/><line x1="110" y1="98" x2="110" y2="910" stroke="#5d3d23" stroke-opacity=".07"/><line x1="110" y1="873.0909090909091" x2="1668" y2="873.0909090909091" stroke="#5d3d23" stroke-opacity=".07"/><line x1="499.5" y1="98" x2="499.5" y2="910" stroke="#5d3d23" stroke-opacity=".07"/><line x1="110" y1="688.5454545454545" x2="1668" y2="688.5454545454545" stroke="#5d3d23" stroke-opacity=".07"/><line x1="889" y1="98" x2="889" y2="910" stroke="#5d3d23" stroke-opacity=".07"/><line x1="110" y1="504" x2="1668" y2="504" stroke="#5d3d23" stroke-opacity=".07"/><line x1="1278.5" y1="98" x2="1278.5" y2="910" stroke="#5d3d23" stroke-opacity=".07"/><line x1="110" y1="319.4545454545454" x2="1668" y2="319.4545454545454" stroke="#5d3d23" stroke-opacity=".07"/><line x1="1668" y1="98" x2="1668" y2="910" stroke="#5d3d23" stroke-opacity=".07"/><line x1="110" y1="134.90909090909088" x2="1668" y2="134.90909090909088" stroke="#5d3d23" stroke-opacity=".07"/><line x1="2057.5" y1="98" x2="2057.5" y2="910" stroke="#5d3d23" stroke-opacity=".07"/><line x1="110" y1="-49.63636363636374" x2="1668" y2="-49.63636363636374" stroke="#5d3d23" stroke-opacity=".07"/><line x1="2447" y1="98" x2="2447" y2="910" stroke="#5d3d23" stroke-opacity=".07"/><line x1="110" y1="-234.18181818181824" x2="1668" y2="-234.18181818181824" stroke="#5d3d23" stroke-opacity=".07"/><polygon points="139.4,183.5 315.8,390.0 139.4,561.0 301.1,717.7 609.7,632.2 712.6,432.8 639.1,226.2" fill="#c2892a" fill-opacity=".55" stroke="#6a4b2a" stroke-opacity=".35" stroke-width="2"/><polygon points="580.3,133.6 933.1,162.1 1388.7,190.6 1491.6,361.5 1138.9,461.3 800.8,425.6 609.7,304.6" fill="#8bab94" fill-opacity=".45" stroke="#6a4b2a" stroke-opacity=".32" stroke-width="2"/><polygon points="977.2,219.1 1579.8,247.6 1609.2,575.2 1491.6,781.8 1168.3,731.9 1212.4,532.5 1388.7,397.2" fill="#be6759" fill-opacity=".48" stroke="#6a4b2a" stroke-opacity=".32" stroke-width="2"/><polygon points="697.9,382.9 1109.5,361.5 1271.2,482.6 1138.9,674.9 830.2,625.1 624.4,518.2" fill="#e2b743" fill-opacity=".48" stroke="#6a4b2a" stroke-opacity=".32" stroke-width="2"/><polygon points="756.7,618.0 1227.1,674.9 1138.9,895.8 727.3,895.8 462.8,760.4" fill="#816e9d" fill-opacity=".38" stroke="#6a4b2a" stroke-opacity=".28" stroke-width="2"/><path d="M 1315.245283018868 183.47368421052636 C 1682.6981132075473 361.54385964912285 1638.6037735849056 753.2982456140351 1418.1320754716983 874.3859649122807 L 1609.2075471698113 895.7543859649123 L 1609.2075471698113 183.47368421052636 Z" fill="#48818f" fill-opacity=".28"/><path d="M 315.8 190.6 Q 550.9 283.2 675.9 308.1 Q 800.8 333.1 852.3 397.2 Q 903.7 461.3 1021.3 568.1 Q 1138.9 674.9 1278.5 721.2 L 1418.1 767.5" fill="none" stroke="#43768b" stroke-opacity=".46" stroke-width="8" stroke-linecap="round"/><path d="M 227.6 582.4 Q 418.7 625.1 565.6 614.4 Q 712.6 603.7 793.5 553.9 Q 874.3 504.0 1080.1 521.8 Q 1285.8 539.6 1410.8 600.2 L 1535.7 660.7" fill="none" stroke="#43768b" stroke-opacity=".31" stroke-width="5" stroke-linecap="round"/><path d="M 1300.5 304.6 Q 1138.9 375.8 1028.6 407.8 Q 918.4 439.9 822.9 464.8 Q 727.3 489.8 617.1 525.4 Q 506.8 561.0 411.3 596.6 L 315.8 632.2" fill="none" stroke="#4d707e" stroke-opacity=".24" stroke-width="4" stroke-linecap="round"/><path d="M 329.1698113207547 316.56140350877195 L 341.1698113207547 286.56140350877195 L 352.1698113207547 314.56140350877195 M 342.1698113207547 286.56140350877195 L 350.1698113207547 300.56140350877195 L 358.1698113207547 282.56140350877195 L 370.1698113207547 316.56140350877195" fill="none" stroke="#5e4932" stroke-width="1.65" stroke-linecap="round" opacity="0.58"/>
<path d="M 402.66037735849056 366.42105263157896 L 414.66037735849056 336.42105263157896 L 425.66037735849056 364.42105263157896 M 415.66037735849056 336.42105263157896 L 423.66037735849056 350.42105263157896 L 431.66037735849056 332.42105263157896 L 443.66037735849056 366.42105263157896" fill="none" stroke="#5e4932" stroke-width="1.65" stroke-linecap="round" opacity="0.58"/>
<path d="M 505.5471698113208 387.7894736842105 L 517.5471698113208 357.7894736842105 L 528.5471698113208 385.7894736842105 M 518.5471698113208 357.7894736842105 L 526.5471698113208 371.7894736842105 L 534.5471698113208 353.7894736842105 L 546.5471698113208 387.7894736842105" fill="none" stroke="#5e4932" stroke-width="1.65" stroke-linecap="round" opacity="0.58"/>
<path d="M 608.4339622641509 266.70175438596493 L 620.4339622641509 236.70175438596493 L 631.4339622641509 264.70175438596493 M 621.4339622641509 236.70175438596493 L 629.4339622641509 250.70175438596493 L 637.4339622641509 232.70175438596493 L 649.4339622641509 266.70175438596493" fill="none" stroke="#5e4932" stroke-width="1.65" stroke-linecap="round" opacity="0.58"/>
<path d="M 681.9245283018869 295.1929824561404 L 693.9245283018869 265.1929824561404 L 704.9245283018869 293.1929824561404 M 694.9245283018869 265.1929824561404 L 702.9245283018869 279.1929824561404 L 710.9245283018869 261.1929824561404 L 722.9245283018869 295.1929824561404" fill="none" stroke="#5e4932" stroke-width="1.65" stroke-linecap="round" opacity="0.58"/>
<path d="M 917.0943396226415 231.0877192982456 L 929.0943396226415 201.0877192982456 L 940.0943396226415 229.0877192982456 M 930.0943396226415 201.0877192982456 L 938.0943396226415 215.0877192982456 L 946.0943396226415 197.0877192982456 L 958.0943396226415 231.0877192982456" fill="none" stroke="#5e4932" stroke-width="1.65" stroke-linecap="round" opacity="0.58"/>
<path d="M 1064.0754716981132 280.9473684210526 L 1076.0754716981132 250.9473684210526 L 1087.0754716981132 278.9473684210526 M 1077.0754716981132 250.9473684210526 L 1085.0754716981132 264.9473684210526 L 1093.0754716981132 246.9473684210526 L 1105.0754716981132 280.9473684210526" fill="none" stroke="#5e4932" stroke-width="1.65" stroke-linecap="round" opacity="0.58"/>
<path d="M 1196.3584905660377 302.31578947368416 L 1208.3584905660377 272.31578947368416 L 1219.3584905660377 300.31578947368416 M 1209.3584905660377 272.31578947368416 L 1217.3584905660377 286.31578947368416 L 1225.3584905660377 268.31578947368416 L 1237.3584905660377 302.31578947368416" fill="none" stroke="#5e4932" stroke-width="1.65" stroke-linecap="round" opacity="0.58"/>
<path d="M 1299.245283018868 323.68421052631584 L 1311.245283018868 293.68421052631584 L 1322.245283018868 321.68421052631584 M 1312.245283018868 293.68421052631584 L 1320.245283018868 307.68421052631584 L 1328.245283018868 289.68421052631584 L 1340.245283018868 323.68421052631584" fill="none" stroke="#5e4932" stroke-width="1.65" stroke-linecap="round" opacity="0.58"/>
<path d="M 358.566037735849 459.01754385964915 L 370.566037735849 429.01754385964915 L 381.566037735849 457.01754385964915 M 371.566037735849 429.01754385964915 L 379.566037735849 443.01754385964915 L 387.566037735849 425.01754385964915 L 399.566037735849 459.01754385964915" fill="none" stroke="#5e4932" stroke-width="1.65" stroke-linecap="round" opacity="0.58"/>
<path d="M 490.8490566037736 480.38596491228066 L 502.8490566037736 450.38596491228066 L 513.8490566037735 478.38596491228066 M 503.8490566037736 450.38596491228066 L 511.8490566037736 464.38596491228066 L 519.8490566037735 446.38596491228066 L 531.8490566037735 480.38596491228066" fill="none" stroke="#5e4932" stroke-width="1.65" stroke-linecap="round" opacity="0.58"/>
<path d="M 593.7358490566037 430.5263157894737 L 605.7358490566037 400.5263157894737 L 616.7358490566037 428.5263157894737 M 606.7358490566037 400.5263157894737 L 614.7358490566037 414.5263157894737 L 622.7358490566037 396.5263157894737 L 634.7358490566037 430.5263157894737" fill="none" stroke="#5e4932" stroke-width="1.65" stroke-linecap="round" opacity="0.58"/>
<path d="M 1313.9433962264152 487.50877192982455 L 1325.9433962264152 457.50877192982455 L 1336.9433962264152 485.50877192982455 M 1326.9433962264152 457.50877192982455 L 1334.9433962264152 471.50877192982455 L 1342.9433962264152 453.50877192982455 L 1354.9433962264152 487.50877192982455" fill="none" stroke="#5e4932" stroke-width="1.65" stroke-linecap="round" opacity="0.58"/>
<path d="M 1416.8301886792453 523.1228070175439 L 1428.8301886792453 493.1228070175439 L 1439.8301886792453 521.1228070175439 M 1429.8301886792453 493.1228070175439 L 1437.8301886792453 507.1228070175439 L 1445.8301886792453 489.1228070175439 L 1457.8301886792453 523.1228070175439" fill="none" stroke="#5e4932" stroke-width="1.65" stroke-linecap="round" opacity="0.58"/>
<path d="M 1460.9245283018868 751.0526315789474 L 1472.9245283018868 721.0526315789474 L 1483.9245283018868 749.0526315789474 M 1473.9245283018868 721.0526315789474 L 1481.9245283018868 735.0526315789474 L 1489.9245283018868 717.0526315789474 L 1501.9245283018868 751.0526315789474" fill="none" stroke="#5e4932" stroke-width="1.65" stroke-linecap="round" opacity="0.58"/>
<path d="M 975.8867924528302 793.7894736842105 L 987.8867924528302 763.7894736842105 L 998.8867924528302 791.7894736842105 M 988.8867924528302 763.7894736842105 L 996.8867924528302 777.7894736842105 L 1004.8867924528302 759.7894736842105 L 1016.8867924528302 793.7894736842105" fill="none" stroke="#5e4932" stroke-width="1.65" stroke-linecap="round" opacity="0.58"/>
<path d="M 873 850.7719298245614 L 885 820.7719298245614 L 896 848.7719298245614 M 886 820.7719298245614 L 894 834.7719298245614 L 902 816.7719298245614 L 914 850.7719298245614" fill="none" stroke="#5e4932" stroke-width="1.65" stroke-linecap="round" opacity="0.58"/>
<path d="M 358.566037735849 637.0877192982457 L 370.566037735849 607.0877192982457 L 381.566037735849 635.0877192982457 M 371.566037735849 607.0877192982457 L 379.566037735849 621.0877192982457 L 387.566037735849 603.0877192982457 L 399.566037735849 637.0877192982457" fill="none" stroke="#5e4932" stroke-width="1.65" stroke-linecap="round" opacity="0.58"/>
<path d="M 255.67924528301887 594.3508771929825 L 267.6792452830189 564.3508771929825 L 278.6792452830189 592.3508771929825 M 268.6792452830189 564.3508771929825 L 276.6792452830189 578.3508771929825 L 284.6792452830189 560.3508771929825 L 296.6792452830189 594.3508771929825" fill="none" stroke="#5e4932" stroke-width="1.65" stroke-linecap="round" opacity="0.58"/>
<path d="M 755.4150943396227 373.54385964912285 L 767.4150943396227 343.54385964912285 L 778.4150943396227 371.54385964912285 M 768.4150943396227 343.54385964912285 L 776.4150943396227 357.54385964912285 L 784.4150943396227 339.54385964912285 L 796.4150943396227 373.54385964912285" fill="none" stroke="#5e4932" stroke-width="1.65" stroke-linecap="round" opacity="0.58"/>
<path d="M 1152.264150943396 658.4561403508771 L 1164.264150943396 628.4561403508771 L 1175.264150943396 656.4561403508771 M 1165.264150943396 628.4561403508771 L 1173.264150943396 642.4561403508771 L 1181.264150943396 624.4561403508771 L 1193.264150943396 658.4561403508771" fill="none" stroke="#5e4932" stroke-width="1.65" stroke-linecap="round" opacity="0.58"/>
<path d="M 1505.0188679245284 758.1754385964912 L 1517.0188679245284 728.1754385964912 L 1528.0188679245284 756.1754385964912 M 1518.0188679245284 728.1754385964912 L 1526.0188679245284 742.1754385964912 L 1534.0188679245284 724.1754385964912 L 1546.0188679245284 758.1754385964912" fill="none" stroke="#5e4932" stroke-width="1.65" stroke-linecap="round" opacity="0.58"/><path d="M 1349.8377358490566 696.3157894736842 q 12 -8 24 0 t 24 0 M 1360.8377358490566 710.6157894736841 q 10 -7 20 0 t 20 0" fill="none" stroke="#486f77" stroke-width="2" opacity=".36"/>
<path d="M 1486.5207547169812 753.2982456140351 q 12 -8 24 0 t 24 0 M 1495.5207547169812 764.9982456140351 q 10 -7 20 0 t 20 0" fill="none" stroke="#486f77" stroke-width="2" opacity=".36"/>
<path d="M 1150.6641509433962 682.0701754385965 q 12 -8 24 0 t 24 0 M 1158.6641509433962 692.4701754385965 q 10 -7 20 0 t 20 0" fill="none" stroke="#486f77" stroke-width="2" opacity=".36"/>
<path d="M 1429.9283018867925 539.6140350877193 q 12 -8 24 0 t 24 0 M 1437.9283018867925 550.0140350877193 q 10 -7 20 0 t 20 0" fill="none" stroke="#486f77" stroke-width="2" opacity=".36"/><circle cx="874.3018867924528" cy="504" r="14" fill="none" stroke="#9f241f" stroke-width="1.2" opacity=".45"/><circle cx="874.3018867924528" cy="504" r="6.5" fill="#9f241f" stroke="#ffeab0" stroke-width="2"/>
<circle cx="991.8867924528302" cy="347.29824561403507" r="14" fill="none" stroke="#9f241f" stroke-width="1.2" opacity=".45"/><circle cx="991.8867924528302" cy="347.29824561403507" r="6.5" fill="#9f241f" stroke="#ffeab0" stroke-width="2"/>
<circle cx="1329.9433962264152" cy="546.7368421052631" r="14" fill="none" stroke="#9f241f" stroke-width="1.2" opacity=".45"/><circle cx="1329.9433962264152" cy="546.7368421052631" r="6.5" fill="#9f241f" stroke="#ffeab0" stroke-width="2"/>
<circle cx="462.7547169811321" cy="418.5263157894737" r="14" fill="none" stroke="#9f241f" stroke-width="1.2" opacity=".45"/><circle cx="462.7547169811321" cy="418.5263157894737" r="6.5" fill="#9f241f" stroke="#ffeab0" stroke-width="2"/>
<circle cx="609.7358490566037" cy="276.0701754385965" r="14" fill="none" stroke="#9f241f" stroke-width="1.2" opacity=".45"/><circle cx="609.7358490566037" cy="276.0701754385965" r="6.5" fill="#9f241f" stroke="#ffeab0" stroke-width="2"/>
<circle cx="1138.8679245283017" cy="674.9473684210526" r="14" fill="none" stroke="#9f241f" stroke-width="1.2" opacity=".45"/><circle cx="1138.8679245283017" cy="674.9473684210526" r="6.5" fill="#9f241f" stroke="#ffeab0" stroke-width="2"/>
<circle cx="359.86792452830184" cy="632.2105263157895" r="14" fill="none" stroke="#9f241f" stroke-width="1.2" opacity=".45"/><circle cx="359.86792452830184" cy="632.2105263157895" r="6.5" fill="#9f241f" stroke="#ffeab0" stroke-width="2"/>
<circle cx="830.2075471698113" cy="226.21052631578948" r="14" fill="none" stroke="#9f241f" stroke-width="1.2" opacity=".45"/><circle cx="830.2075471698113" cy="226.21052631578948" r="6.5" fill="#9f241f" stroke="#ffeab0" stroke-width="2"/>
<circle cx="1300.5471698113208" cy="333.0526315789474" r="14" fill="none" stroke="#9f241f" stroke-width="1.2" opacity=".45"/><circle cx="1300.5471698113208" cy="333.0526315789474" r="6.5" fill="#9f241f" stroke="#ffeab0" stroke-width="2"/>
<circle cx="1432.8301886792453" cy="731.9298245614035" r="14" fill="none" stroke="#9f241f" stroke-width="1.2" opacity=".45"/><circle cx="1432.8301886792453" cy="731.9298245614035" r="6.5" fill="#9f241f" stroke="#ffeab0" stroke-width="2"/>
<circle cx="947.7924528301887" cy="810.280701754386" r="14" fill="none" stroke="#9f241f" stroke-width="1.2" opacity=".45"/><circle cx="947.7924528301887" cy="810.280701754386" r="6.5" fill="#9f241f" stroke="#ffeab0" stroke-width="2"/>
<circle cx="786.1132075471698" cy="853.0175438596491" r="14" fill="none" stroke="#452560" stroke-width="1.2" opacity=".45"/><circle cx="786.1132075471698" cy="853.0175438596491" r="6.5" fill="#452560" stroke="#ffeab0" stroke-width="2"/>
<circle cx="933.0943396226415" cy="475.50877192982455" r="14" fill="none" stroke="#12705a" stroke-width="1.2" opacity=".45"/><circle cx="933.0943396226415" cy="475.50877192982455" r="6.5" fill="#12705a" stroke="#ffeab0" stroke-width="2"/>
<circle cx="418.66037735849056" cy="354.42105263157896" r="14" fill="none" stroke="#12705a" stroke-width="1.2" opacity=".45"/><circle cx="418.66037735849056" cy="354.42105263157896" r="6.5" fill="#12705a" stroke="#ffeab0" stroke-width="2"/>
<circle cx="1374.0377358490566" cy="625.0877192982457" r="14" fill="none" stroke="#12705a" stroke-width="1.2" opacity=".45"/><circle cx="1374.0377358490566" cy="625.0877192982457" r="6.5" fill="#12705a" stroke="#ffeab0" stroke-width="2"/>
<circle cx="1476.9245283018868" cy="753.2982456140351" r="14" fill="none" stroke="#12705a" stroke-width="1.2" opacity=".45"/><circle cx="1476.9245283018868" cy="753.2982456140351" r="6.5" fill="#12705a" stroke="#ffeab0" stroke-width="2"/>
<circle cx="301.07547169811323" cy="589.4736842105262" r="14" fill="none" stroke="#12705a" stroke-width="1.2" opacity=".45"/><circle cx="301.07547169811323" cy="589.4736842105262" r="6.5" fill="#12705a" stroke="#ffeab0" stroke-width="2"/>
<circle cx="1197.6603773584905" cy="247.57894736842104" r="14" fill="none" stroke="#12705a" stroke-width="1.2" opacity=".45"/><circle cx="1197.6603773584905" cy="247.57894736842104" r="6.5" fill="#12705a" stroke="#ffeab0" stroke-width="2"/>
<circle cx="697.9245283018869" cy="375.7894736842105" r="14" fill="none" stroke="#b97820" stroke-width="1.2" opacity=".45"/><circle cx="697.9245283018869" cy="375.7894736842105" r="6.5" fill="#b97820" stroke="#ffeab0" stroke-width="2"/>
<circle cx="1124.1698113207547" cy="397.1578947368421" r="14" fill="none" stroke="#b97820" stroke-width="1.2" opacity=".45"/><circle cx="1124.1698113207547" cy="397.1578947368421" r="6.5" fill="#b97820" stroke="#ffeab0" stroke-width="2"/>
<circle cx="918.3962264150944" cy="297.43859649122805" r="14" fill="none" stroke="#b97820" stroke-width="1.2" opacity=".45"/><circle cx="918.3962264150944" cy="297.43859649122805" r="6.5" fill="#b97820" stroke="#ffeab0" stroke-width="2"/><g filter="url(#softShadow)"><rect x="909.8018867924528" y="445" width="29" height="84" rx="10" fill="#9f241f" stroke="#641714" stroke-width="1.2" opacity=".96"/><text x="924.3018867924528" y="465" text-anchor="middle" font-family="KaiTi, SimKai, serif" font-size="18" fill="#fff2cc">天</text><text x="924.3018867924528" y="485.5" text-anchor="middle" font-family="KaiTi, SimKai, serif" font-size="18" fill="#fff2cc">枢</text><text x="924.3018867924528" y="506" text-anchor="middle" font-family="KaiTi, SimKai, serif" font-size="18" fill="#fff2cc">城</text><rect x="897.3018867924528" y="535" width="54" height="20" rx="9" fill="#efd69c" stroke="#76542e" stroke-opacity=".35" opacity=".74"/><text x="924.3018867924528" y="550" text-anchor="middle" font-family="FangSong, SimFang, serif" font-size="13" fill="#4d351f">主城</text></g>
<g filter="url(#softShadow)"><rect x="1019.3867924528302" y="273.29824561403507" width="29" height="84" rx="10" fill="#9f241f" stroke="#641714" stroke-width="1.2" opacity=".96"/><text x="1033.8867924528302" y="293.29824561403507" text-anchor="middle" font-family="KaiTi, SimKai, serif" font-size="18" fill="#fff2cc">青</text><text x="1033.8867924528302" y="313.79824561403507" text-anchor="middle" font-family="KaiTi, SimKai, serif" font-size="18" fill="#fff2cc">岚</text><text x="1033.8867924528302" y="334.29824561403507" text-anchor="middle" font-family="KaiTi, SimKai, serif" font-size="18" fill="#fff2cc">坊</text><rect x="1006.8867924528302" y="363.29824561403507" width="54" height="20" rx="9" fill="#efd69c" stroke="#76542e" stroke-opacity=".35" opacity=".74"/><text x="1033.8867924528302" y="378.29824561403507" text-anchor="middle" font-family="FangSong, SimFang, serif" font-size="13" fill="#4d351f">灵林</text></g>
<g filter="url(#softShadow)"><rect x="1373.4433962264152" y="466.7368421052631" width="29" height="84" rx="10" fill="#9f241f" stroke="#641714" stroke-width="1.2" opacity=".96"/><text x="1387.9433962264152" y="486.7368421052631" text-anchor="middle" font-family="KaiTi, SimKai, serif" font-size="18" fill="#fff2cc">赤</text><text x="1387.9433962264152" y="507.2368421052631" text-anchor="middle" font-family="KaiTi, SimKai, serif" font-size="18" fill="#fff2cc">霞</text><text x="1387.9433962264152" y="527.7368421052631" text-anchor="middle" font-family="KaiTi, SimKai, serif" font-size="18" fill="#fff2cc">港</text><rect x="1360.9433962264152" y="556.7368421052631" width="54" height="20" rx="9" fill="#efd69c" stroke="#76542e" stroke-opacity=".35" opacity=".74"/><text x="1387.9433962264152" y="571.7368421052631" text-anchor="middle" font-family="FangSong, SimFang, serif" font-size="13" fill="#4d351f">港湾</text></g>
<g filter="url(#softShadow)"><rect x="400.2547169811321" y="338.5263157894737" width="29" height="84" rx="10" fill="#9f241f" stroke="#641714" stroke-width="1.2" opacity=".96"/><text x="414.7547169811321" y="358.5263157894737" text-anchor="middle" font-family="KaiTi, SimKai, serif" font-size="18" fill="#fff2cc">玄</text><text x="414.7547169811321" y="379.0263157894737" text-anchor="middle" font-family="KaiTi, SimKai, serif" font-size="18" fill="#fff2cc">铁</text><text x="414.7547169811321" y="399.5263157894737" text-anchor="middle" font-family="KaiTi, SimKai, serif" font-size="18" fill="#fff2cc">岭</text><rect x="387.7547169811321" y="428.5263157894737" width="54" height="20" rx="9" fill="#efd69c" stroke="#76542e" stroke-opacity=".35" opacity=".74"/><text x="414.7547169811321" y="443.5263157894737" text-anchor="middle" font-family="FangSong, SimFang, serif" font-size="13" fill="#4d351f">山岭</text></g>
<g filter="url(#softShadow)"><rect x="563.2358490566037" y="179.0701754385965" width="29" height="84" rx="10" fill="#9f241f" stroke="#641714" stroke-width="1.2" opacity=".96"/><text x="577.7358490566037" y="199.0701754385965" text-anchor="middle" font-family="KaiTi, SimKai, serif" font-size="18" fill="#fff2cc">万</text><text x="577.7358490566037" y="219.5701754385965" text-anchor="middle" font-family="KaiTi, SimKai, serif" font-size="18" fill="#fff2cc">药</text><text x="577.7358490566037" y="240.0701754385965" text-anchor="middle" font-family="KaiTi, SimKai, serif" font-size="18" fill="#fff2cc">谷</text><rect x="550.7358490566037" y="269.0701754385965" width="54" height="20" rx="9" fill="#efd69c" stroke="#76542e" stroke-opacity=".35" opacity=".74"/><text x="577.7358490566037" y="284.0701754385965" text-anchor="middle" font-family="FangSong, SimFang, serif" font-size="13" fill="#4d351f">药谷</text></g>
<g filter="url(#softShadow)"><rect x="1132.3679245283017" y="618.9473684210526" width="29" height="84" rx="10" fill="#9f241f" stroke="#641714" stroke-width="1.2" opacity=".96"/><text x="1146.8679245283017" y="638.9473684210526" text-anchor="middle" font-family="KaiTi, SimKai, serif" font-size="18" fill="#fff2cc">云</text><text x="1146.8679245283017" y="659.4473684210526" text-anchor="middle" font-family="KaiTi, SimKai, serif" font-size="18" fill="#fff2cc">梦</text><text x="1146.8679245283017" y="679.9473684210526" text-anchor="middle" font-family="KaiTi, SimKai, serif" font-size="18" fill="#fff2cc">泽</text><rect x="1119.8679245283017" y="708.9473684210526" width="54" height="20" rx="9" fill="#efd69c" stroke="#76542e" stroke-opacity=".35" opacity=".74"/><text x="1146.8679245283017" y="723.9473684210526" text-anchor="middle" font-family="FangSong, SimFang, serif" font-size="13" fill="#4d351f">水泽</text></g>
<g filter="url(#softShadow)"><rect x="299.36792452830184" y="535.2105263157895" width="29" height="105" rx="10" fill="#9f241f" stroke="#641714" stroke-width="1.2" opacity=".96"/><text x="313.86792452830184" y="555.2105263157895" text-anchor="middle" font-family="KaiTi, SimKai, serif" font-size="18" fill="#fff2cc">流</text><text x="313.86792452830184" y="575.7105263157895" text-anchor="middle" font-family="KaiTi, SimKai, serif" font-size="18" fill="#fff2cc">沙</text><text x="313.86792452830184" y="596.2105263157895" text-anchor="middle" font-family="KaiTi, SimKai, serif" font-size="18" fill="#fff2cc">海</text><text x="313.86792452830184" y="616.7105263157895" text-anchor="middle" font-family="KaiTi, SimKai, serif" font-size="18" fill="#fff2cc">市</text><rect x="286.86792452830184" y="646.2105263157895" width="54" height="20" rx="9" fill="#efd69c" stroke="#76542e" stroke-opacity=".35" opacity=".74"/><text x="313.86792452830184" y="661.2105263157895" text-anchor="middle" font-family="FangSong, SimFang, serif" font-size="13" fill="#4d351f">荒漠</text></g>
<g filter="url(#softShadow)"><rect x="797.7075471698113" y="118.21052631578948" width="29" height="84" rx="10" fill="#9f241f" stroke="#641714" stroke-width="1.2" opacity=".96"/><text x="812.2075471698113" y="138.21052631578948" text-anchor="middle" font-family="KaiTi, SimKai, serif" font-size="18" fill="#fff2cc">寒</text><text x="812.2075471698113" y="158.71052631578948" text-anchor="middle" font-family="KaiTi, SimKai, serif" font-size="18" fill="#fff2cc">霜</text><text x="812.2075471698113" y="179.21052631578948" text-anchor="middle" font-family="KaiTi, SimKai, serif" font-size="18" fill="#fff2cc">关</text><rect x="785.2075471698113" y="208.21052631578948" width="54" height="20" rx="9" fill="#efd69c" stroke="#76542e" stroke-opacity=".35" opacity=".74"/><text x="812.2075471698113" y="223.21052631578948" text-anchor="middle" font-family="FangSong, SimFang, serif" font-size="13" fill="#4d351f">雪原</text></g>
<g filter="url(#softShadow)"><rect x="1342.0471698113208" y="244.0526315789474" width="29" height="84" rx="10" fill="#9f241f" stroke="#641714" stroke-width="1.2" opacity=".96"/><text x="1356.5471698113208" y="264.0526315789474" text-anchor="middle" font-family="KaiTi, SimKai, serif" font-size="18" fill="#fff2cc">雷</text><text x="1356.5471698113208" y="284.5526315789474" text-anchor="middle" font-family="KaiTi, SimKai, serif" font-size="18" fill="#fff2cc">泽</text><text x="1356.5471698113208" y="305.0526315789474" text-anchor="middle" font-family="KaiTi, SimKai, serif" font-size="18" fill="#fff2cc">城</text><rect x="1329.5471698113208" y="334.0526315789474" width="54" height="20" rx="9" fill="#efd69c" stroke="#76542e" stroke-opacity=".35" opacity=".74"/><text x="1356.5471698113208" y="349.0526315789474" text-anchor="middle" font-family="FangSong, SimFang, serif" font-size="13" fill="#4d351f">雷泽</text></g>
<g filter="url(#softShadow)"><rect x="1446.3301886792453" y="675.9298245614035" width="29" height="84" rx="10" fill="#9f241f" stroke="#641714" stroke-width="1.2" opacity=".96"/><text x="1460.8301886792453" y="695.9298245614035" text-anchor="middle" font-family="KaiTi, SimKai, serif" font-size="18" fill="#fff2cc">碧</text><text x="1460.8301886792453" y="716.4298245614035" text-anchor="middle" font-family="KaiTi, SimKai, serif" font-size="18" fill="#fff2cc">潮</text><text x="1460.8301886792453" y="736.9298245614035" text-anchor="middle" font-family="KaiTi, SimKai, serif" font-size="18" fill="#fff2cc">岛</text><rect x="1433.8301886792453" y="765.9298245614035" width="54" height="20" rx="9" fill="#efd69c" stroke="#76542e" stroke-opacity=".35" opacity=".74"/><text x="1460.8301886792453" y="780.9298245614035" text-anchor="middle" font-family="FangSong, SimFang, serif" font-size="13" fill="#4d351f">海岛</text></g>
<g filter="url(#softShadow)"><rect x="949.2924528301887" y="754.280701754386" width="29" height="84" rx="10" fill="#9f241f" stroke="#641714" stroke-width="1.2" opacity=".96"/><text x="963.7924528301887" y="774.280701754386" text-anchor="middle" font-family="KaiTi, SimKai, serif" font-size="18" fill="#fff2cc">星</text><text x="963.7924528301887" y="794.780701754386" text-anchor="middle" font-family="KaiTi, SimKai, serif" font-size="18" fill="#fff2cc">陨</text><text x="963.7924528301887" y="815.280701754386" text-anchor="middle" font-family="KaiTi, SimKai, serif" font-size="18" fill="#fff2cc">墟</text><rect x="936.7924528301887" y="844.280701754386" width="54" height="20" rx="9" fill="#efd69c" stroke="#76542e" stroke-opacity=".35" opacity=".74"/><text x="963.7924528301887" y="859.280701754386" text-anchor="middle" font-family="FangSong, SimFang, serif" font-size="13" fill="#4d351f">遗迹</text></g>
<g filter="url(#softShadow)"><rect x="712.1132075471698" y="773.0175438596491" width="32" height="105" rx="10" fill="#452560" stroke="#211233" stroke-width="1.2" opacity=".96"/><text x="728.1132075471698" y="793.0175438596491" text-anchor="middle" font-family="KaiTi, SimKai, serif" font-size="20" fill="#f6e8ff">太</text><text x="728.1132075471698" y="813.5175438596491" text-anchor="middle" font-family="KaiTi, SimKai, serif" font-size="20" fill="#f6e8ff">虚</text><text x="728.1132075471698" y="834.0175438596491" text-anchor="middle" font-family="KaiTi, SimKai, serif" font-size="20" fill="#f6e8ff">秘</text><text x="728.1132075471698" y="854.5175438596491" text-anchor="middle" font-family="KaiTi, SimKai, serif" font-size="20" fill="#f6e8ff">境</text><rect x="701.1132075471698" y="884.0175438596491" width="54" height="20" rx="9" fill="#efd69c" stroke="#76542e" stroke-opacity=".35" opacity=".74"/><text x="728.1132075471698" y="899.0175438596491" text-anchor="middle" font-family="FangSong, SimFang, serif" font-size="13" fill="#4d351f">秘境</text></g>
<g filter="url(#softShadow)"><rect x="900.5943396226415" y="356.50877192982455" width="29" height="84" rx="10" fill="#12705a" stroke="#083f35" stroke-width="1.2" opacity=".96"/><text x="915.0943396226415" y="376.50877192982455" text-anchor="middle" font-family="KaiTi, SimKai, serif" font-size="18" fill="#eaffd8">镇</text><text x="915.0943396226415" y="397.00877192982455" text-anchor="middle" font-family="KaiTi, SimKai, serif" font-size="18" fill="#eaffd8">妖</text><text x="915.0943396226415" y="417.50877192982455" text-anchor="middle" font-family="KaiTi, SimKai, serif" font-size="18" fill="#eaffd8">司</text><rect x="888.0943396226415" y="446.50877192982455" width="54" height="20" rx="9" fill="#efd69c" stroke="#76542e" stroke-opacity=".35" opacity=".74"/><text x="915.0943396226415" y="461.50877192982455" text-anchor="middle" font-family="FangSong, SimFang, serif" font-size="13" fill="#4d351f">妖类</text></g>
<g filter="url(#softShadow)"><rect x="356.16037735849056" y="262.42105263157896" width="29" height="84" rx="10" fill="#12705a" stroke="#083f35" stroke-width="1.2" opacity=".96"/><text x="370.66037735849056" y="282.42105263157896" text-anchor="middle" font-family="KaiTi, SimKai, serif" font-size="18" fill="#eaffd8">伏</text><text x="370.66037735849056" y="302.92105263157896" text-anchor="middle" font-family="KaiTi, SimKai, serif" font-size="18" fill="#eaffd8">魔</text><text x="370.66037735849056" y="323.42105263157896" text-anchor="middle" font-family="KaiTi, SimKai, serif" font-size="18" fill="#eaffd8">殿</text><rect x="343.66037735849056" y="352.42105263157896" width="54" height="20" rx="9" fill="#efd69c" stroke="#76542e" stroke-opacity=".35" opacity=".74"/><text x="370.66037735849056" y="367.42105263157896" text-anchor="middle" font-family="FangSong, SimFang, serif" font-size="13" fill="#4d351f">魔类</text></g>
<g filter="url(#softShadow)"><rect x="1415.5377358490566" y="569.0877192982457" width="29" height="74" rx="10" fill="#12705a" stroke="#083f35" stroke-width="1.2" opacity=".96"/><text x="1430.0377358490566" y="589.0877192982457" text-anchor="middle" font-family="KaiTi, SimKai, serif" font-size="18" fill="#eaffd8">鬼</text><text x="1430.0377358490566" y="609.5877192982457" text-anchor="middle" font-family="KaiTi, SimKai, serif" font-size="18" fill="#eaffd8">市</text><rect x="1403.0377358490566" y="649.0877192982457" width="54" height="20" rx="9" fill="#efd69c" stroke="#76542e" stroke-opacity=".35" opacity=".74"/><text x="1430.0377358490566" y="664.0877192982457" text-anchor="middle" font-family="FangSong, SimFang, serif" font-size="13" fill="#4d351f">鬼类</text></g>
<g filter="url(#softShadow)"><rect x="1512.4245283018868" y="689.2982456140351" width="29" height="84" rx="10" fill="#12705a" stroke="#083f35" stroke-width="1.2" opacity=".96"/><text x="1526.9245283018868" y="709.2982456140351" text-anchor="middle" font-family="KaiTi, SimKai, serif" font-size="18" fill="#eaffd8">龙</text><text x="1526.9245283018868" y="729.7982456140351" text-anchor="middle" font-family="KaiTi, SimKai, serif" font-size="18" fill="#eaffd8">渊</text><text x="1526.9245283018868" y="750.2982456140351" text-anchor="middle" font-family="KaiTi, SimKai, serif" font-size="18" fill="#eaffd8">阁</text><rect x="1499.9245283018868" y="779.2982456140351" width="54" height="20" rx="9" fill="#efd69c" stroke="#76542e" stroke-opacity=".35" opacity=".74"/><text x="1526.9245283018868" y="794.2982456140351" text-anchor="middle" font-family="FangSong, SimFang, serif" font-size="13" fill="#4d351f">龙类</text></g>
<g filter="url(#softShadow)"><rect x="240.57547169811323" y="503.47368421052624" width="29" height="84" rx="10" fill="#12705a" stroke="#083f35" stroke-width="1.2" opacity=".96"/><text x="255.07547169811323" y="523.4736842105262" text-anchor="middle" font-family="KaiTi, SimKai, serif" font-size="18" fill="#eaffd8">万</text><text x="255.07547169811323" y="543.9736842105262" text-anchor="middle" font-family="KaiTi, SimKai, serif" font-size="18" fill="#eaffd8">兽</text><text x="255.07547169811323" y="564.4736842105262" text-anchor="middle" font-family="KaiTi, SimKai, serif" font-size="18" fill="#eaffd8">盟</text><rect x="228.07547169811323" y="593.4736842105262" width="54" height="20" rx="9" fill="#efd69c" stroke="#76542e" stroke-opacity=".35" opacity=".74"/><text x="255.07547169811323" y="608.4736842105262" text-anchor="middle" font-family="FangSong, SimFang, serif" font-size="13" fill="#4d351f">兽类</text></g>
<g filter="url(#softShadow)"><rect x="1225.1603773584905" y="150.57894736842104" width="29" height="84" rx="10" fill="#12705a" stroke="#083f35" stroke-width="1.2" opacity=".96"/><text x="1239.6603773584905" y="170.57894736842104" text-anchor="middle" font-family="KaiTi, SimKai, serif" font-size="18" fill="#eaffd8">破</text><text x="1239.6603773584905" y="191.07894736842104" text-anchor="middle" font-family="KaiTi, SimKai, serif" font-size="18" fill="#eaffd8">军</text><text x="1239.6603773584905" y="211.57894736842104" text-anchor="middle" font-family="KaiTi, SimKai, serif" font-size="18" fill="#eaffd8">营</text><rect x="1212.6603773584905" y="240.57894736842104" width="54" height="20" rx="9" fill="#efd69c" stroke="#76542e" stroke-opacity=".35" opacity=".74"/><text x="1239.6603773584905" y="255.57894736842104" text-anchor="middle" font-family="FangSong, SimFang, serif" font-size="13" fill="#4d351f">兵戈</text></g>
<g filter="url(#softShadow)"><rect x="689.4245283018869" y="306.7894736842105" width="29" height="84" rx="10" fill="#b97820" stroke="#71450e" stroke-width="1.2" opacity=".96"/><text x="703.9245283018869" y="326.7894736842105" text-anchor="middle" font-family="KaiTi, SimKai, serif" font-size="18" fill="#fff1ba">铸</text><text x="703.9245283018869" y="347.2894736842105" text-anchor="middle" font-family="KaiTi, SimKai, serif" font-size="18" fill="#fff1ba">剑</text><text x="703.9245283018869" y="367.7894736842105" text-anchor="middle" font-family="KaiTi, SimKai, serif" font-size="18" fill="#fff1ba">阁</text><rect x="676.9245283018869" y="396.7894736842105" width="54" height="20" rx="9" fill="#efd69c" stroke="#76542e" stroke-opacity=".35" opacity=".74"/><text x="703.9245283018869" y="411.7894736842105" text-anchor="middle" font-family="FangSong, SimFang, serif" font-size="13" fill="#4d351f">武器</text></g>
<g filter="url(#softShadow)"><rect x="1159.6698113207547" y="331.1578947368421" width="29" height="84" rx="10" fill="#b97820" stroke="#71450e" stroke-width="1.2" opacity=".96"/><text x="1174.1698113207547" y="351.1578947368421" text-anchor="middle" font-family="KaiTi, SimKai, serif" font-size="18" fill="#fff1ba">琢</text><text x="1174.1698113207547" y="371.6578947368421" text-anchor="middle" font-family="KaiTi, SimKai, serif" font-size="18" fill="#fff1ba">玉</text><text x="1174.1698113207547" y="392.1578947368421" text-anchor="middle" font-family="KaiTi, SimKai, serif" font-size="18" fill="#fff1ba">楼</text><rect x="1147.1698113207547" y="421.1578947368421" width="54" height="20" rx="9" fill="#efd69c" stroke="#76542e" stroke-opacity=".35" opacity=".74"/><text x="1174.1698113207547" y="436.1578947368421" text-anchor="middle" font-family="FangSong, SimFang, serif" font-size="13" fill="#4d351f">宝石</text></g>
<g filter="url(#softShadow)"><rect x="951.8962264150944" y="206.43859649122805" width="29" height="84" rx="10" fill="#b97820" stroke="#71450e" stroke-width="1.2" opacity=".96"/><text x="966.3962264150944" y="226.43859649122805" text-anchor="middle" font-family="KaiTi, SimKai, serif" font-size="18" fill="#fff1ba">藏</text><text x="966.3962264150944" y="246.93859649122805" text-anchor="middle" font-family="KaiTi, SimKai, serif" font-size="18" fill="#fff1ba">经</text><text x="966.3962264150944" y="267.43859649122805" text-anchor="middle" font-family="KaiTi, SimKai, serif" font-size="18" fill="#fff1ba">阁</text><rect x="939.3962264150944" y="296.43859649122805" width="54" height="20" rx="9" fill="#efd69c" stroke="#76542e" stroke-opacity=".35" opacity=".74"/><text x="966.3962264150944" y="311.43859649122805" text-anchor="middle" font-family="FangSong, SimFang, serif" font-size="13" fill="#4d351f">技能书</text></g></svg>